<svg data-name="Layer 1" xmlns="http://www.w3.org/2000/svg" viewBox="0 0 69.96 69.96"><path d="M42.92 28.57v-.46a8 8 0 0 0-6.56-7.82v-2.1h-2.8v2.1a8 8 0 0 0-6.52 7.82c0 3.36 2.22 6.28 5.8 7.61.48.18 1 .34 1.46.5a21.36 21.36 0 0 1 2.5.93 5.27 5.27 0 0 1 3.32 4.73 5.14 5.14 0 0 1-10.28.1v-.47h-2.8v.48a8 8 0 0 0 6.54 7.68v2.1h2.78v-2.1a7.87 7.87 0 0 0 4.73-12.78 9.21 9.21 0 0 0-4.32-2.78l-1.19-.4a12.85 12.85 0 0 1-3.77-1.68 5 5 0 0 1-2-3.95 5.14 5.14 0 0 1 10.28 0v.47z" fill="#bd3a54"/><circle cx="35.62" cy="35.87" r="33.98" transform="rotate(-67.92 34.636 35.899)" fill="none" stroke="#bd3a54" stroke-linecap="round" stroke-linejoin="round" stroke-width="2"/><circle cx="34.98" cy="34.98" r="25.76" stroke-dasharray="0 3.84" fill="none" stroke="#bd3a54" stroke-linecap="round" stroke-linejoin="round" stroke-width="2"/></svg>