<svg id="Layer_1" data-name="Layer 1" xmlns="http://www.w3.org/2000/svg" viewBox="0 0 69.51 69.51"><defs><style>.cls-1{fill:none;stroke:#bd3a54;stroke-linecap:round;stroke-linejoin:round;stroke-width:1.5px}</style></defs><path class="cls-1" d="M63.12 40.35l6.26-1.25v-5.91l-6.26-1.25a27.62 27.62 0 0 0-1.61-6l4.79-4.24-3-5.12-6 2.05a27.18 27.18 0 0 0-4.42-4.42l2-6-5.07-2.99-4.2 4.78a27.61 27.61 0 0 0-6-1.6l-1.28-6.26h-5.91l-1.26 6.27a27.52 27.52 0 0 0-6 1.6l-4.23-4.79-5.12 3 2 6a28.36 28.36 0 0 0-4.41 4.42l-6-2.05-2.95 5.12 4.78 4.2a27.76 27.76 0 0 0-1.6 6l-6.26 1.28v5.92l6.26 1.25a27.76 27.76 0 0 0 1.6 6l-4.78 4.2 3 5.12 6-2a28.86 28.86 0 0 0 4.42 4.42l-2 6 5.12 3 4.21-4.79a28 28 0 0 0 6 1.61l1.25 6.25h5.91l1.25-6.26a27.46 27.46 0 0 0 6-1.6l4.21 4.79 5.12-3-2-6a28.86 28.86 0 0 0 4.42-4.42l6 2 2.95-5.12-4.78-4.21a28 28 0 0 0 1.59-6z" transform="translate(-.62 -1.39)"/><path class="cls-1" d="M35.37 14a22.18 22.18 0 0 0-22.18 22.15v1.48M35.37 58.33a22.18 22.18 0 0 0 22.18-22.18v-1.48" transform="translate(-.62 -1.39)"/><path class="cls-1" d="M42.98 32.12H37.5l5.48-12.34h-8.22l-8.23 16.45h5.48l-5.48 16.46 16.45-20.57z"/></svg>