<svg id="Layer_1" data-name="Layer 1" xmlns="http://www.w3.org/2000/svg" viewBox="0 0 67.77 67.82"><defs><style>.cls-1{fill:#bd3a54}</style></defs><path class="cls-1" d="M47.91 22.93h11.61v-2.76h10v30.38h-9.94v-8.48a7 7 0 0 0-5.14 1.29 5.79 5.79 0 0 1 2 4.74 4.88 4.88 0 0 1-1.53 3.19c-2.14 1.93-4.5 1.6-7.47-1-1.44.87-2.79 1.84-4.27 2.56-4.68 2.28-9.43 2-14.18.16a23.72 23.72 0 0 1-7.19-4.47c-1.29-1.15-2.57-2.3-3.82-3.48a11.35 11.35 0 0 0-6.24-2.83v8.3h-10V20.16h9.94v2.64c.11.08.15.14.2.14 2.58 0 5.16 0 7.73-.16a7.74 7.74 0 0 0 4.51-2c4.81-4 4.88-3.57 10.3-3.58h8.86a11 11 0 0 1 1.29.05c3.12.47 4.43 2.69 3.34 5.68zM40.7 40.66a8.3 8.3 0 0 0 .56.72c2.42 2.53 4.83 5.07 7.28 7.57a8.6 8.6 0 0 0 1.83 1.41 2.79 2.79 0 0 0 4.21-1.89 3.83 3.83 0 0 0-1.29-3.79c-2.92-3-5.94-6-8.73-9.16a6.16 6.16 0 0 0-5.24-2.26 14 14 0 0 0-8.1 2.64c-1.62 1.15-3.22 2.31-4.87 3.4a4.05 4.05 0 0 1-5.16-.85 3.73 3.73 0 0 1-.47-5 13.57 13.57 0 0 1 1.58-1.81 45.63 45.63 0 0 1 10.52-7.09 13.29 13.29 0 0 1 5.79-1.44c1.7 0 3.39-.05 5.08-.16a5.58 5.58 0 0 0 2.05-.51 1.55 1.55 0 0 0 .06-2.86 5 5 0 0 0-2.2-.58c-3.1-.06-6.2 0-9.3 0-5.23 0-4.68-.44-9 3.14l-.26.21a10 10 0 0 1-5.25 2.19c-2.35.17-4.7.14-7 .19h-1v15.65l.19.11c.31.07.61.16.92.22a13 13 0 0 1 6.62 3.44c1 1 2.08 1.9 3.12 2.85a22.41 22.41 0 0 0 6.14 4.07c3.64 1.58 7.38 2.31 11.3 1.18a15.19 15.19 0 0 0 6.07-3.34l-6.71-7zm18.84-15.88a1.08 1.08 0 0 0-.33-.07c-7 .05-14.05 0-21.08.21A10 10 0 0 0 33.86 26a78.64 78.64 0 0 0-7.71 4.67 24.86 24.86 0 0 0-3.81 3.45 2 2 0 0 0 .07 3.07 2.36 2.36 0 0 0 3.23.47Q28 36.1 30.3 34.45a14.28 14.28 0 0 1 9.08-2.87c3 .12 6 0 8.95 0h1v1.75h-4.54l8.3 8.67a23.76 23.76 0 0 1 3.13-1.36 22.31 22.31 0 0 1 3.32-.44zm1.78-2.9v27h6.47v-27zm-57.87 0v27h6.48v-27z" transform="translate(-1.73 -1.96)"/><path class="cls-1" d="M8.12 55.64l1.31-.94C16 63.32 24.72 68.05 35.62 68.05s19.53-4.7 26.19-13.34l1.31.93c-13.27 18.8-41.6 18.91-55 0zM11.6 14.37l-1.2-1c12.07-14.26 36.19-16 50.47-.07l-1.21 1.13c-6.52-7-14.49-10.69-24-10.7S18.16 7.4 11.6 14.37z" transform="translate(-1.73 -1.96)"/></svg>