<svg data-name="Layer 1" xmlns="http://www.w3.org/2000/svg" viewBox="0 0 69.96 69.96"><path d="M30.61 40.69a7.9 7.9 0 0 1-1.68-11.19 10.77 10.77 0 0 0-6-1.6c-6.1.12-10.63 4.83-10.69 11.12 0 .59 0 1.12-.7 1.35a1 1 0 0 1-1.37-1 12.77 12.77 0 0 1 5-10.81 37.67 37.67 0 0 1 3.73-2.31 6.64 6.64 0 0 1 .33-10.4 6.62 6.62 0 0 1 8.05 10.51 14.19 14.19 0 0 1 2 1 2 2 0 0 0 2.34.06 7.26 7.26 0 0 1 7.6.33l.39.25 3.27-1.62a6.52 6.52 0 0 1-2.42-6 6.43 6.43 0 0 1 2.41-4.34 6.632 6.632 0 0 1 8.37 10.29 31.52 31.52 0 0 1 3.34 1.9 12.89 12.89 0 0 1 5.4 11.2 1 1 0 0 1-1.09 1 .93.93 0 0 1-1-1 13.22 13.22 0 0 0-.78-4.7 10.91 10.91 0 0 0-15.42-5.55l-.49.3a7.81 7.81 0 0 1 1.54 5.91 7.58 7.58 0 0 1-3.2 5.21c1 .45 2 .82 2.9 1.33a15 15 0 0 1 7.92 11.67 22.76 22.76 0 0 1 .17 2.51c0 .81-.39 1.28-1.05 1.29s-1-.43-1-1.26a13.66 13.66 0 0 0-2.3-8.06 13.36 13.36 0 0 0-24.25 5.13 27.89 27.89 0 0 0-.22 2.9c0 .82-.38 1.25-1.09 1.25s-1-.41-1-1.21A15.47 15.47 0 0 1 30.06 40.9zm4.53-12.09a5.8 5.8 0 0 0-5.78 5.51 5.71 5.71 0 1 0 5.75-5.48zm-12-11.94a4.64 4.64 0 0 0-4.55 4.52 4.57 4.57 0 0 0 4.6 4.58 4.62 4.62 0 0 0 4.51-4.49 4.71 4.71 0 0 0-4.54-4.61zm23.87 0a4.66 4.66 0 0 0-4.56 4.52 4.55 4.55 0 1 0 4.56-4.52z" fill="#bd3a54"/><circle cx="35.62" cy="35.87" r="33.98" transform="rotate(-67.92 34.636 35.899)" fill="none" stroke="#bd3a54" stroke-linecap="round" stroke-linejoin="round" stroke-width="2"/></svg>